<svg xmlns="http://www.w3.org/2000/svg" version="1.1" xmlns:xlink="http://www.w3.org/1999/xlink" xmlns:svgjs="http://svgjs.dev/svgjs" width="100%" height="100%" viewBox="0 0 1000 600"><rect width="1000" height="600" x="0" y="0" fill="#99f443"/><g><rect width="333.3333333333333" height="333.3333333333333" y="324.92167189480614" fill="#ec449b" transform="matrix(0.4129508761192404,0,0,0.4129508761192404,0,96.99816241460499)" x="302.6994323730469"/><path d="M416.51503614852743 564.9346355165949L396.0198262719298 564.9346355165949L396.0198262719298 439.0354891317805L393.0919391467015 418.54027925518284L416.51503614852743 416.5883545050306L416.51503614852743 564.9346355165949ZM536.449968018988 542.487500889845L543.9865663598532 554.7954708421934Q535.96198683145 561.2205564781109 526.3108033445865 563.90445300957Q516.659619857723 566.5883495410293 505.1378418186304 566.5883495410293L505.1378418186304 566.5883495410293Q491.06771757795025 566.5883495410293 479.8441502645753 560.4885846968039Q468.6205829512004 554.3888198525783 460.81288395059175 543.9514444524591Q453.0051849499831 533.5140690523399 448.8573448559098 519.5523850755571Q444.70950476183646 505.5907010987743 444.70950476183646 489.7855326357367L444.70950476183646 489.7855326357367Q444.70950476183646 475.03765674569814 448.47780393226907 461.8350546161967Q452.2461031027017 448.60534242072094 459.945361839413 438.60172807619114Q467.64462057612434 428.5981137316613 479.4646093409346 422.7423394812048Q491.2845981057449 416.8865652307483 507.3879772945003 416.8865652307483L507.3879772945003 416.8865652307483Q518.6115446078752 416.8865652307483 528.615158952405 420.4379838733863Q538.6187732969348 424.0165125819986 545.6402803842877 430.7398089436338L545.6402803842877 430.7398089436338L536.856619008603 441.177184343753Q532.166577595043 438.05952675670443 525.0908503757414 435.72806108291155Q518.0151231564398 433.36948534314433 508.9332510550374 433.36948534314433L508.9332510550374 433.36948534314433Q497.0319320923041 433.36948534314433 488.73625190415737 437.8697562948841Q480.4405717160107 442.3429171806494 475.1812189169896 450.0150658513864Q469.8947560519942 457.6872145221233 467.50907024625263 467.8805993284735Q465.12338444051113 478.0739841348237 465.12338444051113 489.487321910019L465.12338444051113 489.487321910019Q465.12338444051113 496.23772833762854 466.1806770135102 503.3134555569301Q467.2650796524836 510.3891827762317 469.4609949964048 517.1124791378669Q471.65691034032596 523.8357754995021 475.12699878504094 529.7999900138559Q478.59708722975586 535.7642045282098 483.3142387092903 540.2373654139751Q488.058500254799 544.7376363657148 494.1040449670758 547.3673127652254Q500.14958967935263 549.996989164736 507.6590779542436 549.996989164736L507.6590779542436 549.996989164736Q512.0509086420859 549.996989164736 515.6836574826469 549.6174482410952Q519.2892962572336 549.2107972514802 522.6509444380512 548.3432751403014Q526.0125926188688 547.4757530291228 529.3471307337121 546.038919532483Q532.654558782581 544.6291961018176 536.449968018988 542.487500889845L536.449968018988 542.487500889845Z " fill="#99f443" transform="matrix(0.4129508761192404,0,0,0.4129508761192404,0,96.99816241460499)"/><path d="M742.7892060704024 564.9346355165949L722.2939961938048 564.9346355165949L722.2939961938048 439.0354891317805L719.3661090685765 418.54027925518284L742.7892060704024 416.5883545050306L742.7892060704024 564.9346355165949ZM800.3709861998911 482.5742550865634L800.3709861998911 564.9346355165949L781.8277010734456 564.9346355165949L781.8277010734456 457.578774258226L800.3709861998911 455.62684950807386L800.3709861998911 473.492382985161L806.335200714245 463.05500758504184Q808.0702449366024 461.862164682171 810.7270314020873 460.6151016473516Q813.3567078015978 459.34092854655785 816.6641358504668 458.31074603953306Q819.9986739653101 457.2805635325083 823.7940832017171 456.6028118831499Q827.589492438124 455.92506023379156 831.6017822023257 455.92506023379156L831.6017822023257 455.92506023379156Q842.5271387899829 455.92506023379156 849.3588754155155 461.2386331647613Q856.1906120410481 466.5522060957311 858.2509770550976 474.84788628387776L858.2509770550976 474.84788628387776L865.6520250660911 463.4345485086825Q869.0678933788574 460.6964318452746 875.330318618929 458.31074603953306Q881.5656337930262 455.92506023379156 889.6715435193524 455.92506023379156L889.6715435193524 455.92506023379156Q897.0997015963204 455.92506023379156 902.3590543953416 458.4191863034304Q907.6184071943627 460.88620230709495 911.0071654411546 465.576243720655Q914.3688136219722 470.266285134215 915.9140873825094 476.9082512979273Q917.4864712090208 483.5502174616395 917.4864712090208 491.73745738588883L917.4864712090208 491.73745738588883L917.4864712090208 564.9346355165949L898.9431860825753 564.9346355165949L898.9431860825753 492.7134197609649Q898.9431860825753 487.4540669619438 898.2112143012682 483.4959973296908Q897.4792425199611 479.5379276974378 895.6628680996806 476.8540311659786Q893.8736037453745 474.1701346345194 890.8372763562489 472.8417414017769Q887.8280590330977 471.5404582350088 883.3277880813579 471.5404582350088L883.3277880813579 471.5404582350088Q880.5083412200271 471.5404582350088 877.4177936989528 472.5164206100849Q874.3543562438529 473.492382985161 871.2366986568044 475.09187687764677Q868.0919310037814 476.7184808361069 865.1369338125788 478.80595591613076Q862.1548265554019 480.8934309961546 859.5251501558913 483.06223627410145L859.5251501558913 483.06223627410145Q859.7962508156347 485.88168313543235 859.8504709475834 487.77938775363583Q859.9046910795321 489.6770923718393 859.9046910795321 492.7134197609649L859.9046910795321 492.7134197609649L859.9046910795321 564.9346355165949L841.3614059530865 564.9346355165949L841.3614059530865 492.7134197609649Q841.3614059530865 482.16760409694837 837.8370973764229 476.8540311659786Q834.3398988657336 471.5404582350088 825.2580267643312 471.5404582350088L825.2580267643312 471.5404582350088Q822.330139639103 471.5404582350088 819.022711590234 472.40798034618757Q815.6881734753907 473.30261252334066 812.4349655584705 474.84788628387776Q809.1546475755758 476.4202701103892 806.0369899885272 478.42641499249004Q802.9193324014786 480.40544980861654 800.3709861998911 482.5742550865634L800.3709861998911 482.5742550865634ZM976.0442137135856 482.5742550865634L976.0442137135856 564.9346355165949L957.50092858714 564.9346355165949L957.50092858714 457.578774258226L976.0442137135856 455.62684950807386L976.0442137135856 473.492382985161L982.0084282279394 463.05500758504184Q983.743472450297 461.862164682171 986.4002589157818 460.6151016473516Q989.0299353152924 459.34092854655785 992.3373633641613 458.31074603953306Q995.6719014790045 457.2805635325083 999.4673107154116 456.6028118831499Q1003.2627199518184 455.92506023379156 1007.2750097160202 455.92506023379156L1007.2750097160202 455.92506023379156Q1018.2003663036775 455.92506023379156 1025.03210292921 461.2386331647613Q1031.8638395547425 466.5522060957311 1033.924204568792 474.84788628387776L1033.924204568792 474.84788628387776L1041.3252525797857 463.4345485086825Q1044.7411208925519 460.6964318452746 1051.0035461326233 458.31074603953306Q1057.2388613067205 455.92506023379156 1065.344771033047 455.92506023379156L1065.344771033047 455.92506023379156Q1072.772929110015 455.92506023379156 1078.032281909036 458.4191863034304Q1083.2916347080572 460.88620230709495 1086.6803929548491 465.576243720655Q1090.0420411356668 470.266285134215 1091.5873148962037 476.9082512979273Q1093.1596987227153 483.5502174616395 1093.1596987227153 491.73745738588883L1093.1596987227153 491.73745738588883L1093.1596987227153 564.9346355165949L1074.61641359627 564.9346355165949L1074.61641359627 492.7134197609649Q1074.61641359627 487.4540669619438 1073.8844418149627 483.4959973296908Q1073.1524700336554 479.5379276974378 1071.3360956133752 476.8540311659786Q1069.546831259069 474.1701346345194 1066.5105038699435 472.8417414017769Q1063.501286546792 471.5404582350088 1059.0010155950522 471.5404582350088L1059.0010155950522 471.5404582350088Q1056.1815687337216 471.5404582350088 1053.0910212126473 472.5164206100849Q1050.0275837575473 473.492382985161 1046.9099261704987 475.09187687764677Q1043.7651585174758 476.7184808361069 1040.8101613262734 478.80595591613076Q1037.8280540690962 480.8934309961546 1035.1983776695856 483.06223627410145L1035.1983776695856 483.06223627410145Q1035.4694783293291 485.88168313543235 1035.523698461278 487.77938775363583Q1035.5779185932265 489.6770923718393 1035.5779185932265 492.7134197609649L1035.5779185932265 492.7134197609649L1035.5779185932265 564.9346355165949L1017.034633466781 564.9346355165949L1017.034633466781 492.7134197609649Q1017.034633466781 482.16760409694837 1013.5103248901173 476.8540311659786Q1010.0131263794281 471.5404582350088 1000.9312542780257 471.5404582350088L1000.9312542780257 471.5404582350088Q998.0033671527974 471.5404582350088 994.6959391039285 472.40798034618757Q991.3614009890852 473.30261252334066 988.1081930721649 474.84788628387776Q984.8278750892704 476.4202701103892 981.7102175022218 478.42641499249004Q978.5925599151732 480.40544980861654 976.0442137135856 482.5742550865634L976.0442137135856 482.5742550865634ZM1192.7078609804753 539.7493842264371L1192.7078609804753 457.578774258226L1211.251146106921 455.62684950807386L1211.251146106921 564.9346355165949L1192.7078609804753 564.9346355165949L1192.7078609804753 549.0210267896598L1186.7436464661214 559.458402189779Q1185.008602243764 560.6512450926498 1182.5958063720482 561.8983081274692Q1180.2101205663066 563.172481228263 1177.2009032431556 564.2026637352877Q1174.1645758540299 565.2328462423125 1170.5589370794432 565.9105978916709Q1166.9532983048566 566.5883495410293 1162.9410085406548 566.5883495410293L1162.9410085406548 566.5883495410293Q1155.1333095400464 566.5883495410293 1149.521525883359 563.7689026796984Q1143.9097422266714 560.9223457523932 1140.3041034520847 555.8527634151924Q1136.6984646774981 550.7831810779917 1134.9363103891665 543.8158941225875Q1133.1741561008344 536.8214971012089 1133.1741561008344 528.6342571769595L1133.1741561008344 528.6342571769595L1133.1741561008344 457.578774258226L1151.7174412272802 455.62684950807386L1151.7174412272802 528.6342571769595Q1151.7174412272802 539.180072840976 1155.9737215852506 545.0629571574068Q1160.202891877247 550.972951539812 1169.2847639786496 550.972951539812L1169.2847639786496 550.972951539812Q1172.5921920275184 550.972951539812 1175.8182898784644 549.915658966813Q1179.0443877294101 548.8312563278396 1182.0807151185359 547.1775423034051Q1185.0899324416873 545.5238282789705 1187.7738289731465 543.5719035288184Q1190.4577255046056 541.6199787786662 1192.7078609804753 539.7493842264371L1192.7078609804753 539.7493842264371ZM1268.8329262364098 482.5742550865634L1268.8329262364098 564.9346355165949L1250.2896411099641 564.9346355165949L1250.2896411099641 457.578774258226L1268.8329262364098 455.62684950807386L1268.8329262364098 473.492382985161L1274.7971407507634 463.05500758504184Q1276.5321849731208 461.862164682171 1279.270301636529 460.6151016473516Q1282.0084182999367 459.34092854655785 1285.3700664807543 458.31074603953306Q1288.731714661572 457.2805635325083 1292.6355641618761 456.6028118831499Q1296.5394136621808 455.92506023379156 1300.5517034263823 455.92506023379156L1300.5517034263823 455.92506023379156Q1308.2509621630934 455.92506023379156 1313.5916451600378 458.4191863034304Q1318.9052180910076 460.88620230709495 1322.2126461398764 465.576243720655Q1325.5471842547197 470.266285134215 1326.956907685385 476.9082512979273Q1328.3666311160505 483.5502174616395 1328.3666311160505 491.73745738588883L1328.3666311160505 491.73745738588883L1328.3666311160505 564.9346355165949L1309.823345989605 564.9346355165949L1309.823345989605 491.73745738588883Q1309.823345989605 486.47810458686774 1309.091374208298 482.6555852844864Q1308.359402426991 478.86017604807944 1306.5430280067103 476.36604997844057Q1304.7537636524044 473.8719239088017 1301.7174362632786 472.70619107190527Q1298.7082189401276 471.5404582350088 1294.2079479883878 471.5404582350088L1294.2079479883878 471.5404582350088Q1290.9005199395187 471.5404582350088 1287.4846516267526 472.57064074203356Q1284.0687833139864 473.573713183084 1280.7884653310916 475.20031714154413Q1277.508147348197 476.7998110340299 1274.4447098930973 478.7517357841821Q1271.3812724379973 480.70366053433423 1268.8329262364098 482.5742550865634L1268.8329262364098 482.5742550865634ZM1431.5204321483975 542.975482077383L1442.1746880763112 552.3555649045031Q1439.1383606871855 555.4732224915517 1435.5327219125988 558.1028988910623Q1431.9270831380127 560.7325752905729 1427.53525245017 562.6302799087763Q1423.1434217623278 564.5550945929541 1417.8027387653838 565.5581670340046Q1412.4891658344136 566.5883495410293 1405.9556399345988 566.5883495410293L1405.9556399345988 566.5883495410293Q1392.9699183328921 566.5883495410293 1383.8067160335668 562.0067483913666Q1374.6164036682671 557.4251472417038 1368.814849549759 549.6987784390183Q1363.0132954312512 541.999519702307 1360.329398899792 532.0501254897258Q1357.645502368333 522.1007312771446 1357.645502368333 511.2567048874104L1357.645502368333 511.2567048874104Q1357.645502368333 504.31652799798053 1358.9196754691266 497.5390115043966Q1360.1938485699206 490.7614950108127 1362.7150847055336 484.60751003463855Q1365.2634309071213 478.4535250584644 1369.0588401435284 473.1941722594433Q1372.8813594459093 467.9348194604222 1377.95094178311 464.1123001580409Q1383.0205241203112 460.3168909216339 1389.418499690254 458.1209755777127Q1395.8164752601974 455.92506023379156 1403.5157339969087 455.92506023379156L1403.5157339969087 455.92506023379156Q1414.0615496609253 455.92506023379156 1421.7608083976365 459.34092854655785Q1429.487177200322 462.75679685932414 1434.5567595375228 468.91078183549826Q1439.6263418747235 475.03765674569814 1442.0662478124136 483.6315476595625Q1444.5061537501042 492.22543857342686 1444.5061537501042 502.66281397354606L1444.5061537501042 502.66281397354606Q1444.5061537501042 505.69914136267164 1444.3163832882838 509.30478013725826Q1444.1266128264633 512.9104189118449 1443.7199618368481 516.1365167627908L1443.7199618368481 516.1365167627908L1376.1887874947784 516.1365167627908Q1376.1887874947784 523.4562345758615 1378.1949323768795 529.7999900138559Q1380.2010772589801 536.1437454518505 1383.8067160335668 540.8880069973592Q1387.4123548081534 545.6051584768936 1392.5361572773027 548.2890550083528Q1397.6599597464524 550.972951539812 1404.0037151844467 550.972951539812L1404.0037151844467 550.972951539812Q1410.239030358544 550.972951539812 1414.8748516401552 550.0512092966846Q1419.5106729217669 549.1294670535572 1422.8452110366102 547.8010738208147Q1426.1526390854788 546.4997906540466 1428.267224231477 545.1171772893556Q1430.354699311501 543.7616739906388 1431.5204321483975 542.975482077383L1431.5204321483975 542.975482077383ZM1390.3402419333815 501.4970811366496L1425.9628686236583 501.4970811366496Q1426.071308887556 500.4126784976762 1426.0984189535302 499.3553859246771Q1426.1526390854788 498.27098328570366 1426.1526390854788 497.2136907127046L1426.1526390854788 497.2136907127046Q1426.1526390854788 491.62901712199147 1424.8784659846851 486.96608577440577Q1423.6314029498658 482.27604436084573 1421.0288366163295 478.80595591613076Q1418.4533803487675 475.33586747141584 1414.4410905845657 473.3839427212636Q1410.4559108863386 471.43201797111146 1404.9796775595228 471.43201797111146L1404.9796775595228 471.43201797111146Q1398.446151659708 471.43201797111146 1393.8103303780968 473.54660311710967Q1389.174509096485 475.6340781971335 1386.002631377488 478.9143961800281Q1382.8307536584907 482.16760409694837 1380.9330490402872 486.0714535972527Q1379.0082343561094 489.975303097557 1378.0322719810333 493.49961167422066L1378.0322719810333 493.49961167422066L1372.9626896438326 504.1267575361602L1390.3402419333815 501.4970811366496ZM1555.65742424488 542.487500889845L1563.1940225857452 554.7954708421934Q1555.169443057342 561.2205564781109 1545.5182595704782 563.90445300957Q1535.8670760836148 566.5883495410293 1524.3452980445222 566.5883495410293L1524.3452980445222 566.5883495410293Q1510.2751738038419 566.5883495410293 1499.0516064904673 560.4885846968039Q1487.8280391770923 554.3888198525783 1480.0203401764834 543.9514444524591Q1472.212641175875 533.5140690523399 1468.0648010818018 519.5523850755571Q1463.916960987728 505.5907010987743 1463.916960987728 489.7855326357367L1463.916960987728 489.7855326357367Q1463.916960987728 475.03765674569814 1467.6852601581609 461.8350546161967Q1471.4535593285937 448.60534242072094 1479.152818065305 438.60172807619114Q1486.8520768020162 428.5981137316613 1498.6720655668264 422.7423394812048Q1510.4920543316366 416.8865652307483 1526.5954335203924 416.8865652307483L1526.5954335203924 416.8865652307483Q1537.819000833767 416.8865652307483 1547.822615178297 420.4379838733863Q1557.826229522827 424.0165125819986 1564.8477366101797 430.7398089436338L1564.8477366101797 430.7398089436338L1556.0640752344948 441.177184343753Q1551.374033820935 438.05952675670443 1544.2983066016332 435.72806108291155Q1537.2225793823318 433.36948534314433 1528.1407072809293 433.36948534314433L1528.1407072809293 433.36948534314433Q1516.2393883181958 433.36948534314433 1507.9437081300493 437.8697562948841Q1499.6480279419025 442.3429171806494 1494.3886751428813 450.0150658513864Q1489.1022122778859 457.6872145221233 1486.7165264721443 467.8805993284735Q1484.3308406664032 478.0739841348237 1484.3308406664032 489.487321910019L1484.3308406664032 489.487321910019Q1484.3308406664032 496.23772833762854 1485.3881332394021 503.3134555569301Q1486.4725358783758 510.3891827762317 1488.6684512222969 517.1124791378669Q1490.864366566218 523.8357754995021 1494.3344550109327 529.7999900138559Q1497.8045434556475 535.7642045282098 1502.521694935182 540.2373654139751Q1507.2659564806909 544.7376363657148 1513.3115011929676 547.3673127652254Q1519.3570459052444 549.996989164736 1526.8665341801357 549.996989164736L1526.8665341801357 549.996989164736Q1531.258364867978 549.996989164736 1534.8911137085388 549.6174482410952Q1538.4967524831254 549.2107972514802 1541.858400663943 548.3432751403014Q1545.2200488447606 547.4757530291228 1548.554586959604 546.038919532483Q1551.862015008473 544.6291961018176 1555.65742424488 542.487500889845L1555.65742424488 542.487500889845ZM1630.8065271257378 566.5883495410293L1630.8065271257378 566.5883495410293Q1619.9896108019784 566.5883495410293 1611.0432890304473 562.359179249033Q1602.124077324891 558.1028988910623 1595.671881622999 550.64763074812Q1589.2467959870814 543.1652525392034 1585.6682672784696 532.9718677328532Q1582.1168486358315 522.7784829265031 1582.1168486358315 510.9584941616928L1582.1168486358315 510.9584941616928Q1582.1168486358315 499.16561546285675 1585.5327169485977 489.05356085442963Q1588.9485852613639 478.9415062460024 1595.2923406993586 471.5946783669575Q1601.636096137353 464.2207404219382 1610.6637481068065 460.0729003278649Q1619.6914000762604 455.92506023379156 1630.8065271257378 455.92506023379156L1630.8065271257378 455.92506023379156Q1641.650553515472 455.92506023379156 1650.6239853529773 460.0729003278649Q1659.5974171904822 464.2207404219382 1666.0496128923742 471.5946783669575Q1672.501808594266 478.9415062460024 1676.1074473688527 489.05356085442963Q1679.7130861434393 499.16561546285675 1679.7130861434393 510.9584941616928L1679.7130861434393 510.9584941616928Q1679.7130861434393 522.7784829265031 1676.2429976987246 532.9718677328532Q1672.7729092540094 543.1652525392034 1666.429153816015 550.64763074812Q1660.0853983780203 558.1028988910623 1651.0306363425925 562.359179249033Q1641.94876424119 566.5883495410293 1630.8065271257378 566.5883495410293ZM1661.169801016994 513.5881705612032L1661.169801016994 513.5881705612032Q1661.169801016994 505.69914136267164 1659.4618668606108 498.08121282388333Q1657.7539327042277 490.463284285095 1654.0398536657435 484.4719597047669Q1650.3257746272598 478.4535250584644 1644.470000376803 474.7665560859548Q1638.6142261263467 471.0524770474708 1630.4269862020974 471.0524770474708L1630.4269862020974 471.0524770474708Q1622.6192872014885 471.0524770474708 1616.9532834128527 474.2785748984167Q1611.2872796242164 477.4775626833883 1607.6816408496297 482.8453557463067Q1604.076002075043 488.21314880922523 1602.36806791866 495.04488543475776Q1600.660133762277 501.8766220602903 1600.660133762277 509.11500967543793L1600.660133762277 509.11500967543793Q1600.660133762277 517.0040388739695 1602.36806791866 524.6219674127578Q1604.076002075043 532.2398959515461 1607.7358609815783 538.2041104658999Q1611.395719888114 544.1412149142794 1617.1972740066217 547.8010738208147Q1622.9988281251294 551.46093272735 1631.213178115353 551.46093272735L1631.213178115353 551.46093272735Q1638.9124368520643 551.46093272735 1644.5784406407006 548.2348348764042Q1650.2444444293365 545.0358470914325 1653.9585234678207 539.6951640944884Q1657.6454924403301 534.3815911635187 1659.4076467286623 527.5498545379861Q1661.169801016994 520.7181179124535 1661.169801016994 513.5881705612032ZM1777.9057451024828 468.20592012016556L1768.2274515496451 479.2397169717201Q1764.432042313238 475.82384865895386 1759.1997995801912 473.6821534469814Q1753.9946669131186 471.5404582350088 1748.4099933224056 471.5404582350088L1748.4099933224056 471.5404582350088Q1740.2227533981563 471.5404582350088 1734.4754194115972 474.60389569010874Q1728.7009753590637 477.694443211183 1725.1495567164256 482.9537960102041Q1721.5710280078133 488.21314880922523 1719.9173139833788 495.20754583060375Q1718.2635999589447 502.174832786008 1718.2635999589447 509.90120158869365L1718.2635999589447 509.90120158869365Q1718.2635999589447 517.8986710511226 1719.7817636535074 525.1641687322445Q1721.29992734807 532.4296664133665 1724.9055661226566 537.9872299381053Q1728.5112048972433 543.5719035288184 1734.5025294775714 546.8251114457387Q1740.520964123874 550.1054294286332 1749.4943959613793 550.1054294286332L1749.4943959613793 550.1054294286332Q1757.00388423627 550.1054294286332 1762.236126969317 548.3432751403014Q1767.441259636389 546.5811208519697 1770.2878165636944 544.6291961018176L1770.2878165636944 544.6291961018176L1777.3093236510476 558.40110961678Q1771.8330903242318 562.115188655264 1764.5675926431095 564.3382140651595Q1757.3020949619877 566.5883495410293 1748.1388926626623 566.5883495410293L1748.1388926626623 566.5883495410293Q1735.9393629742112 566.5883495410293 1726.7490506089116 561.7627577975976Q1717.5858483095863 556.9371660541658 1711.486083465361 548.8854764597882Q1705.3863186211352 540.8337868654105 1702.2957711000608 530.3421913333427Q1699.2323336449608 519.8505958012748 1699.2323336449608 508.6270284878999L1699.2323336449608 508.6270284878999Q1699.2323336449608 498.46075374752405 1702.214440902138 488.94512059053227Q1705.1965481593147 479.4294874335405 1711.2963130035405 472.1097696204699Q1717.3960778477658 464.79005180739927 1726.694830476963 460.3711110535826Q1736.0206931721345 455.92506023379156 1748.6268738502004 455.92506023379156L1748.6268738502004 455.92506023379156Q1757.6003056877057 455.92506023379156 1764.676032907007 458.6902869631738Q1771.7517601263085 461.48262375853034 1777.9057451024828 468.20592012016556L1777.9057451024828 468.20592012016556ZM1845.518249642476 566.5883495410293L1845.518249642476 566.5883495410293Q1834.701333318716 566.5883495410293 1825.755011547185 562.359179249033Q1816.8357998416286 558.1028988910623 1810.3836041397367 550.64763074812Q1803.9585185038195 543.1652525392034 1800.3799897952067 532.9718677328532Q1796.828571152569 522.7784829265031 1796.828571152569 510.9584941616928L1796.828571152569 510.9584941616928Q1796.828571152569 499.16561546285675 1800.2444394653353 489.05356085442963Q1803.6603077781015 478.9415062460024 1810.0040632160958 471.5946783669575Q1816.3478186540906 464.2207404219382 1825.3754706235445 460.0729003278649Q1834.403122592998 455.92506023379156 1845.518249642476 455.92506023379156L1845.518249642476 455.92506023379156Q1856.36227603221 455.92506023379156 1865.335707869715 460.0729003278649Q1874.3091397072199 464.2207404219382 1880.7613354091118 471.5946783669575Q1887.2135311110037 478.9415062460024 1890.8191698855903 489.05356085442963Q1894.424808660177 499.16561546285675 1894.424808660177 510.9584941616928L1894.424808660177 510.9584941616928Q1894.424808660177 522.7784829265031 1890.9547202154622 532.9718677328532Q1887.484631770747 543.1652525392034 1881.1408763327527 550.64763074812Q1874.7971208947579 558.1028988910623 1865.7423588593301 562.359179249033Q1856.6604867579276 566.5883495410293 1845.518249642476 566.5883495410293ZM1875.8815235337315 513.5881705612032L1875.8815235337315 513.5881705612032Q1875.8815235337315 505.69914136267164 1874.1735893773484 498.08121282388333Q1872.4656552209653 490.463284285095 1868.7515761824811 484.4719597047669Q1865.0374971439974 478.4535250584644 1859.1817228935406 474.7665560859548Q1853.3259486430843 471.0524770474708 1845.138708718835 471.0524770474708L1845.138708718835 471.0524770474708Q1837.3310097182261 471.0524770474708 1831.6650059295903 474.2785748984167Q1825.999002140954 477.4775626833883 1822.3933633663673 482.8453557463067Q1818.7877245917807 488.21314880922523 1817.0797904353976 495.04488543475776Q1815.3718562790145 501.8766220602903 1815.3718562790145 509.11500967543793L1815.3718562790145 509.11500967543793Q1815.3718562790145 517.0040388739695 1817.0797904353976 524.6219674127578Q1818.7877245917807 532.2398959515461 1822.447583498316 538.2041104658999Q1826.107442404851 544.1412149142794 1831.9089965233593 547.8010738208147Q1837.710550641867 551.46093272735 1845.9249006320906 551.46093272735L1845.9249006320906 551.46093272735Q1853.6241593688019 551.46093272735 1859.2901631574382 548.2348348764042Q1864.956166946074 545.0358470914325 1868.6702459845583 539.6951640944884Q1872.3572149570678 534.3815911635187 1874.1193692453999 527.5498545379861Q1875.8815235337315 520.7181179124535 1875.8815235337315 513.5881705612032ZM1962.6337346516052 566.5883495410293L1962.6337346516052 566.5883495410293Q1951.8168183278453 566.5883495410293 1942.8704965563147 562.359179249033Q1933.9512848507584 558.1028988910623 1927.4990891488665 550.64763074812Q1921.0740035129488 543.1652525392034 1917.4954748043365 532.9718677328532Q1913.9440561616984 522.7784829265031 1913.9440561616984 510.9584941616928L1913.9440561616984 510.9584941616928Q1913.9440561616984 499.16561546285675 1917.359924474465 489.05356085442963Q1920.7757927872312 478.9415062460024 1927.1195482252256 471.5946783669575Q1933.4633036632204 464.2207404219382 1942.4909556326738 460.0729003278649Q1951.5186076021278 455.92506023379156 1962.6337346516052 455.92506023379156L1962.6337346516052 455.92506023379156Q1973.4777610413398 455.92506023379156 1982.4511928788447 460.0729003278649Q1991.4246247163496 464.2207404219382 1997.8768204182416 471.5946783669575Q2004.3290161201335 478.9415062460024 2007.93465489472 489.05356085442963Q2011.5402936693067 499.16561546285675 2011.5402936693067 510.9584941616928L2011.5402936693067 510.9584941616928Q2011.5402936693067 522.7784829265031 2008.0702052245915 532.9718677328532Q2004.6001167798768 543.1652525392034 1998.256361341882 550.64763074812Q1991.9126059038877 558.1028988910623 1982.8578438684594 562.359179249033Q1973.7759717670574 566.5883495410293 1962.6337346516052 566.5883495410293ZM1992.9970085428613 513.5881705612032L1992.9970085428613 513.5881705612032Q1992.9970085428613 505.69914136267164 1991.2890743864782 498.08121282388333Q1989.5811402300951 490.463284285095 1985.867061191611 484.4719597047669Q1982.1529821531267 478.4535250584644 1976.2972079026704 474.7665560859548Q1970.4414336522136 471.0524770474708 1962.2541937279648 471.0524770474708L1962.2541937279648 471.0524770474708Q1954.446494727356 471.0524770474708 1948.7804909387196 474.2785748984167Q1943.1144871500837 477.4775626833883 1939.508848375497 482.8453557463067Q1935.9032096009105 488.21314880922523 1934.1952754445274 495.04488543475776Q1932.4873412881443 501.8766220602903 1932.4873412881443 509.11500967543793L1932.4873412881443 509.11500967543793Q1932.4873412881443 517.0040388739695 1934.1952754445274 524.6219674127578Q1935.9032096009105 532.2398959515461 1939.5630685074457 538.2041104658999Q1943.2229274139809 544.1412149142794 1949.0244815324886 547.8010738208147Q1954.8260356509968 551.46093272735 1963.0403856412204 551.46093272735L1963.0403856412204 551.46093272735Q1970.7396443779317 551.46093272735 1976.4056481665675 548.2348348764042Q1982.0716519552038 545.0358470914325 1985.7857309936876 539.6951640944884Q1989.4726999661975 534.3815911635187 1991.2348542545292 527.5498545379861Q1992.9970085428613 520.7181179124535 1992.9970085428613 513.5881705612032ZM2059.3624500480346 482.5742550865634L2059.3624500480346 564.9346355165949L2040.8191649215887 564.9346355165949L2040.8191649215887 457.578774258226L2059.3624500480346 455.62684950807386L2059.3624500480346 473.492382985161L2065.3266645623885 463.05500758504184Q2067.061708784746 461.862164682171 2069.7998254481536 460.6151016473516Q2072.5379421115617 459.34092854655785 2075.899590292379 458.31074603953306Q2079.261238473197 457.2805635325083 2083.165087973501 456.6028118831499Q2087.0689374738054 455.92506023379156 2091.081227238007 455.92506023379156L2091.081227238007 455.92506023379156Q2098.7804859747184 455.92506023379156 2104.1211689716624 458.4191863034304Q2109.434741902632 460.88620230709495 2112.742169951501 465.576243720655Q2116.0767080663445 470.266285134215 2117.48643149701 476.9082512979273Q2118.8961549276755 483.5502174616395 2118.8961549276755 491.73745738588883L2118.8961549276755 491.73745738588883L2118.8961549276755 564.9346355165949L2100.35286980123 564.9346355165949L2100.35286980123 491.73745738588883Q2100.35286980123 486.47810458686774 2099.620898019923 482.6555852844864Q2098.888926238616 478.86017604807944 2097.0725518183353 476.36604997844057Q2095.283287464029 473.8719239088017 2092.2469600749037 472.70619107190527Q2089.237742751752 471.5404582350088 2084.7374718000124 471.5404582350088L2084.7374718000124 471.5404582350088Q2081.430043751144 471.5404582350088 2078.0141754383776 472.57064074203356Q2074.5983071256114 473.573713183084 2071.317989142716 475.20031714154413Q2068.037671159822 476.7998110340299 2064.974233704722 478.7517357841821Q2061.9107962496223 480.70366053433423 2059.3624500480346 482.5742550865634L2059.3624500480346 482.5742550865634Z " fill="#ec449b" transform="matrix(0.4129508761192404,0,0,0.4129508761192404,0,96.99816241460499)"/></g></svg>